<?xml version="1.0" encoding="utf-8"?>
<!-- Generator: Adobe Illustrator 16.0.4, SVG Export Plug-In . SVG Version: 6.00 Build 0)  -->
<!DOCTYPE svg PUBLIC "-//W3C//DTD SVG 1.1//EN" "http://www.w3.org/Graphics/SVG/1.1/DTD/svg11.dtd">
<svg version="1.1" id="Layer_1" xmlns="http://www.w3.org/2000/svg" xmlns:xlink="http://www.w3.org/1999/xlink" x="0px" y="0px"
	 width="800px" height="800px" viewBox="0 0 800 800" enable-background="new 0 0 800 800" xml:space="preserve">
<circle fill="none" stroke="#000000" stroke-width="60" stroke-miterlimit="10" cx="400" cy="400" r="340.5"/>
<path d="M400,55.5C209.738,55.5,55.5,209.738,55.5,400c0,190.263,154.238,344.5,344.5,344.5c190.262,0,344.5-154.237,344.5-344.5
	C744.5,209.738,590.262,55.5,400,55.5z M161.882,411.093c1.584-20.05,3.927-40.031,9.37-59.53
	c16.95-60.7,50.642-108.793,105.968-140.487c4.203-2.412,6.201-5.719,5.994-10.542c-0.275-8.13-0.275-16.26,2.136-24.115
	c4.961-16.398,15.572-26.871,32.521-30.592c0.345-0.069,0.551-0.344,0.827-0.482c3.169,0,6.338,0,9.508,0
	c3.307,0.896,6.752,1.654,9.991,2.825c11.851,4.271,21.428,11.713,28.662,21.979c3.101,4.41,6.822,6.201,12.195,6.201
	c45.68,0,89.019,9.853,129.326,31.694c28.387,15.364,51.262,36.723,69.038,63.663c0.826,1.24,1.516,2.549,2.204,3.858
	c0.345,0.758,0.62,1.516,1.033,2.619c-10.335,1.24-20.463,2.549-30.591,3.72c-39.479,4.617-78.546,11.369-117.268,20.395
	c-52.985,12.333-104.935,28.249-155.508,48.161c-39.962,15.709-76.824,36.93-111.067,62.837c-1.103,0.827-2.549,1.24-3.858,1.859
	C162.226,413.849,161.744,412.402,161.882,411.093z M652.726,359.073c-2.274,19.017-13.574,27.078-20.67,33.554
	c1.929,28.8,1.446,62.423-5.926,90.465c-8.681,33.211-23.013,63.458-45.888,89.364c-28.18,31.832-63.594,52.088-103.694,64.903
	c-6.545,2.136-11.575,0.345-15.847-5.029c-7.992-10.267-14.125-21.497-17.914-33.898c-8.199-26.733-11.162-54.156-10.817-82.061
	c0.069-3.101,1.446-5.513,3.79-7.647c17.225-16.055,17.845-48.782,11.574-60.426c-11.368-21.084-31.005-26.389-52.433-24.941
	c-21.565,1.446-50.366,23.219-42.512,56.429c3.514,14.883,10.335,27.836,24.46,35.621c3.1,1.653,5.375,3.652,5.719,7.648
	c0.896,11.781,4.823,61.459,13.987,88.398c5.03,14.813,11.092,28.869,23.357,39.411c0.276,0.206-124.158,42.855-197.743-61.735
	c-9.439-13.435-15.709-33.485-25.906-46.369c-41.478-2.411-50.021-32.59-50.986-41.202c-0.965-8.612-2.343-29.145,27.353-52.57
	c13.987-11.024,30.109-19.017,45.681-27.63c67.453-37.274,237.774-91.637,398.793-106.381
	C634.536,313.393,656.652,327.035,652.726,359.073z"/>
</svg>
