<?xml version="1.0" encoding="utf-8"?>
<!-- Generator: Adobe Illustrator 16.0.4, SVG Export Plug-In . SVG Version: 6.00 Build 0)  -->
<!DOCTYPE svg PUBLIC "-//W3C//DTD SVG 1.1//EN" "http://www.w3.org/Graphics/SVG/1.1/DTD/svg11.dtd">
<svg version="1.1" id="Layer_1" xmlns="http://www.w3.org/2000/svg" xmlns:xlink="http://www.w3.org/1999/xlink" x="0px" y="0px"
	 width="800px" height="800px" viewBox="0 0 800 800" enable-background="new 0 0 800 800" xml:space="preserve">
<polygon fill="none" points="499.75,353.498 548,402.748 596.25,353.498 612.5,370.248 564.5,419.248 612.5,468.248 596,484.998 
	548,435.998 500,484.998 483.5,468.248 531.5,419.248 483.5,370.248 "/>
<polygon fill="none" points="499.75,353.498 548,402.748 596.25,353.498 612.5,370.248 564.5,419.248 612.5,468.248 596,484.998 
	548,435.998 500,484.998 483.5,468.248 531.5,419.248 483.5,370.248 "/>
<g>
	<path d="M399,8.08C182.52,8.08,7,183.52,7,400c0,216.48,175.52,392,392,392c216.4,0,392-175.52,392-392
		C791,183.6,615.48,8.08,399,8.08z M429.8,615.44v1.52c0,6.24-1.2,12.88-3.439,19.92c-2.32,7.12-5.841,12.64-10.561,16.8
		c-4.8,4.08-10.8,5.84-18,5.2c-7.28-0.64-15.6-5.439-25.12-14.32c-16.72-15.119-34.479-30.88-53.199-47.279
		C300.76,580.8,283.4,565.76,267.32,551.92c-18.72-15.76-37.44-31.36-56.16-46.8c-3.6,0.32-7.2,0.479-10.88,0.479
		c-2.96,0.32-6.08,0.48-9.36,0.48h-8.4c-8.88,0-16.08-2.72-21.68-8.08c-5.6-5.44-8.4-11.92-8.4-19.44V354.4h0.48l-0.48-0.48
		c0-9.2,2.88-16.72,8.64-22.64c5.76-5.92,12.88-8.88,21.44-8.88h28.08c30.24-25.6,57.68-48.64,82.32-68.96
		c10.48-8.88,20.8-17.44,31.04-25.84c10.16-8.4,19.36-16,27.521-22.88c8.239-6.88,15.119-12.64,20.72-17.28
		c5.52-4.56,8.96-7.36,10.319-8.32c9.841-7.2,17.841-10.56,23.921-9.84c6.079,0.64,10.8,3.6,14.239,8.88
		c3.44,5.28,5.84,11.68,7.12,19.2c1.36,7.6,2,14.48,2,20.72V615.44z M611.5,468.248l-16.5,16.75l-48-49l-48,49l-16.5-16.75l48-49
		l-48-49l16.25-16.75l48.25,49.25l48.25-49.25l16.25,16.75l-48,49L611.5,468.248z"/>
</g>
</svg>
