<?xml version="1.0" encoding="utf-8"?>
<!-- Generator: Adobe Illustrator 12.0.0, SVG Export Plug-In . SVG Version: 6.00 Build 51448)  -->
<!DOCTYPE svg PUBLIC "-//W3C//DTD SVG 1.1//EN" "http://www.w3.org/Graphics/SVG/1.1/DTD/svg11.dtd" [
	<!ENTITY ns_svg "http://www.w3.org/2000/svg">
	<!ENTITY ns_xlink "http://www.w3.org/1999/xlink">
]>
<svg  version="1.1" id="レイヤー_1" xmlns="&ns_svg;" xmlns:xlink="&ns_xlink;" width="512" height="512" viewBox="0 0 512 512"
	 overflow="visible" enable-background="new 0 0 512 512" xml:space="preserve">
<circle fill="#000" cx="255.973" cy="256.717" r="216.5"/>
<g>
	<path fill="#FFFFFF" d="M274.527,343.118c-1.781,14.234-8.004,25.348-18.676,33.352s-23.57,12.008-38.688,12.008
		c-9.781,0-16.898-2.227-21.344-6.672s-6.668-10.227-6.668-17.34c0-9.781,3.555-18.23,10.672-25.348
		c12.449-12.449,31.125-18.676,56.027-18.676V97.665c11.559,10.672,20.008,18.676,25.344,24.012
		c9.781,9.785,27.57,23.57,53.359,41.355c29.348,20.453,44.023,40.02,44.023,58.695c0,17.789-8.449,35.129-25.348,52.024
		c-11.563,11.563-25.344,21.793-41.352,30.684l-4.004-5.336c12.449-8.891,22.676-18.676,30.684-29.348
		c7.113-9.781,10.672-19.567,10.672-29.348s-3.559-18.23-10.672-25.348c-8.895-8.891-19.566-17.785-32.016-26.68
		c-12.453-8.891-23.125-18.676-32.016-29.348V343.118z"/>
</g>
</svg>
